<?xml version="1.0" encoding="utf-8"?>
<!-- Generator: Adobe Illustrator 12.0.1, SVG Export Plug-In . SVG Version: 6.00 Build 51448)  -->
<!DOCTYPE svg PUBLIC "-//W3C//DTD SVG 1.1//EN" "http://www.w3.org/Graphics/SVG/1.1/DTD/svg11.dtd" [
	<!ENTITY ns_svg "http://www.w3.org/2000/svg">
	<!ENTITY ns_xlink "http://www.w3.org/1999/xlink">
]>
<svg  version="1.1" id="Layer_1" xmlns="&ns_svg;" xmlns:xlink="&ns_xlink;" width="260.727" height="345.066"
	 viewBox="0 0 260.727 345.066" overflow="visible" enable-background="new 0 0 260.727 345.066" xml:space="preserve">
<g>
	<path d="M260.727,345.066H231.09v-86.266H0v-28.195h92.773c19.438,0,36.063-6.906,49.879-20.723
		c13.813-13.813,20.723-30.441,20.723-49.879c0-20.242-5.746-36.906-17.23-50s-27.59-19.641-48.313-19.641
		c-43.855,0-65.781,23.215-65.781,69.641H2.41c0-31.324,8.352-55.461,25.059-72.41c16.707-16.945,40.16-25.422,70.363-25.422
		c28.113,0,51.004,9.238,68.676,27.711c17.672,18.477,26.508,41.848,26.508,70.121c0,13.977-3.293,27.313-9.879,40
		c-6.586,12.691-15.824,22.891-27.711,30.602h75.664V0h29.637V345.066z"/>
</g>
</svg>
